<svg xmlns="http://www.w3.org/2000/svg" xmlns:xlink="http://www.w3.org/1999/xlink" width="575.217" height="772.999" viewBox="0 0 575.217 772.999">
  <defs>
    <linearGradient id="linear-gradient" x1="6.895" y1="5.852" x2="6.943" y2="5.825" gradientUnits="objectBoundingBox">
      <stop offset="0" stop-color="#dd2d5b"/>
      <stop offset="1" stop-color="#272740"/>
    </linearGradient>
  </defs>
  <g id="Group_3812" data-name="Group 3812" transform="translate(-5821.205 6612.499)">
    <path id="Path_6281" data-name="Path 6281" d="M320.866,470.311h-.479c-.463.008-.909.008-1.34.008-5.187,0-9.88-.35-14.255-.52-.73-.032-1.453-.057-2.159-.073s-1.421-.024-2.11-.024c-1.283,0-2.533.033-3.767.114v94.578c9.367,2.508,18.094,4.5,25.977,5.893V470.352C322.117,470.327,321.491,470.311,320.866,470.311Z" transform="translate(5620.524 -6733.238)" fill="#fff"/>
    <path id="Path_6282" data-name="Path 6282" d="M321.678,283.393c-.374-.309-.739-.609-1.088-.9-.178-.146-.341-.292-.519-.43s-.333-.276-.5-.414a40.355,40.355,0,0,0-6.129-4.391c-.325-.171-.635-.317-.95-.455a8.98,8.98,0,0,0-3.718-.82,8.846,8.846,0,0,0-1.218.082c-.285.032-.568.081-.86.138a16.184,16.184,0,0,0-1.828.487c-.333.113-.658.225-.99.354a65.858,65.858,0,0,0-7.127,3.373V325.2c4.628-1.055,9.375-2.443,14.548-3.653l11.429-3.987V284.271C322.376,283.969,322.015,283.677,321.678,283.393Z" transform="translate(5620.525 -6711.443)" fill="#fff"/>
    <path id="Path_6283" data-name="Path 6283" d="M315.581,340.828l-.65.228-.674.154c-2.37.553-4.724,1.169-7,1.762-2.492.649-5.059,1.322-7.632,1.907-1,.226-1.953.429-2.874.621v96.534c1.193-.066,2.427-.1,3.766-.1q1.193,0,2.411.024c.787.023,1.591.049,2.4.08,1.365.057,2.752.13,4.18.2,3.069.154,6.242.317,9.529.317h.171c.3,0,.621,0,.949-.008h.7c.584,0,1.2.008,1.864.032V338.336Z" transform="translate(5620.526 -6718.458)" fill="#dd2d5b"/>
    <path id="Path_6284" data-name="Path 6284" d="M713.472,342.988c-2.3-.6-4.677-1.218-7.062-1.775l-.682-.153-.658-.228-7.126-2.492v117.68h1.177a188.064,188.064,0,0,1,20.7,1.38c1.291.137,2.646.283,4.1.438V345.5c-.925-.178-1.883-.39-2.89-.621C718.488,344.3,715.939,343.629,713.472,342.988Z" transform="translate(5575.385 -6718.46)" fill="#dd2d5b"/>
    <path id="Path_6285" data-name="Path 6285" d="M487.772,76.5,296.757,186.787V243.5c.852-.382,1.686-.722,2.508-1.031.528-.21,1.007-.374,1.413-.511l.114-.041.122-.04a28.865,28.865,0,0,1,3.3-.861c.621-.122,1.177-.21,1.729-.276a21.794,21.794,0,0,1,11.778,1.729c.609.266,1.186.544,1.762.844l.024.017.025.008a35.031,35.031,0,0,1,3.207,1.952v-43.5L487.772,106.5,652.8,201.785V245.3a31.93,31.93,0,0,1,3.2-1.952c.609-.325,1.226-.621,1.875-.9a21.992,21.992,0,0,1,8.889-1.9,22.357,22.357,0,0,1,2.874.186c.576.065,1.169.162,1.794.292a27.367,27.367,0,0,1,3.426.926c.479.154.958.325,1.47.528.681.259,1.4.552,2.118.86l.057.024.049.025.227.106V186.78Z" transform="translate(5620.524 -6689)" fill="url(#linear-gradient)"/>
    <path id="Union_15" data-name="Union 15" d="M73.954,429.1q-2.7-2.1-5.343-4.322A192.63,192.63,0,0,1,20.1,363.549,188.94,188.94,0,0,1,0,280.064c8.538,2.2,16.507,3.967,23.7,5.245.816.142,1.624.293,2.431.417a163.694,163.694,0,0,0,35.872,95.449q4.979,6.217,10.606,11.972a166.7,166.7,0,0,0,17.27,15.434A162.945,162.945,0,0,0,114.956,424.7l-12.283,21.185,16.667-18.975L288.868,233.915,230.1,236.044l43.283-48.918c1.562-.479,3.15-.9,4.748-1.269.959-.2,1.908-.391,2.867-.542a54.915,54.915,0,0,1,9.026-.692,109.093,109.093,0,0,1,11.04.657c.648.062,1.3.133,1.97.2.328.045.665.08,1.012.125.683.08,1.393.16,2.094.248.355.054.728.1,1.091.142.719.089,1.465.195,2.236.293,1.908.248,3.932.532,6.07.834.861.133,1.74.248,2.645.382,1.793.257,3.684.523,5.645.816a18.284,18.284,0,0,0,2.787.186c1.3,0,2.752-.089,4.322-.221.533-.062,1.066-.107,1.615-.169.267-.026.559-.053.852-.1.568-.062,1.136-.115,1.722-.195l1.8-.213c1.846-.231,3.79-.462,5.8-.7.674-.061,1.358-.141,2.05-.212s1.384-.133,2.1-.2c1.056-.1,2.13-.186,3.212-.257.719-.036,1.455-.08,2.192-.116s1.482-.061,2.228-.08c.684-.018,1.367-.035,2.068-.035h1c11.031.151,15.877.976,24.974,1.891,2.209.212,4.659.435,7.517.657l1.2-.186,22.471-3.648h.026c-3.159-18.327-7.3-36.52-3.692-55.335,1.411-7.357,1.633-14.945,2.618-22.4,2.37-17.732,1-34.576-10.269-49.584-3.008-3.994-5.892-6.168-11.155-6.692-.027,0-.062-.009-.1-.009a70.681,70.681,0,0,1-8.617-1.482c-4.633-1.056-9.381-2.44-14.564-3.647l-11.413-3.994-.568-.2-11.12-7.321-3.745-5.077c-3.212-2.174-2.947-5,.675-8.014,2.982-2.5,5.75-5.272,8.768-7.73,2.281-1.837,4.251-3.488,5.991-4.943.364-.293.719-.594,1.066-.887.745-.621,1.447-1.2,2.112-1.74a38.751,38.751,0,0,1,6.124-4.393,10.188,10.188,0,0,1,.95-.452,8.894,8.894,0,0,1,5-.737,6.313,6.313,0,0,1,.8.133,15.167,15.167,0,0,1,1.953.533c.284.089.577.195.87.311.506.195,1.047.408,1.606.657.363.16.763.328,1.153.514,1.3.613,2.733,1.331,4.349,2.184.372.186.754.39,1.145.6.506.276,1.056.568,1.606.87,1.686.9,3.532,1.9,5.582,3,.133.07.248.141.382.2,1.455.772,2.893,1.642,4.393,2.316a99.884,99.884,0,0,1,20.6,12.434,88.038,88.038,0,0,1,27.671,37.789c6.923,17.519,16.055,34.381,21.042,52.406,4.6,16.516,5.023,34.266,7.136,51.492,1.553,12.86,1.633,26,4.659,38.5,1.3,5.28,2.033,9.354,1.828,12.629a10.409,10.409,0,0,1-3.94,8,4.931,4.931,0,0,1-.684.533,34.68,34.68,0,0,1-4.162,2.4.822.822,0,0,0-.24.141c-3.657,1.776-8.378,3.693-14.209,6.062a201.98,201.98,0,0,1-39.315,10.783c-2.645.435-5.183.8-7.6,1.066-5.884.639-11.111,1.3-15.833,1.978-.453.062-.906.133-1.349.2-.4.054-.8.106-1.181.169-2.653.4-5.148.79-7.544,1.172-.585.089-1.171.186-1.748.284-.728.116-1.447.24-2.147.355-1.447.248-2.875.488-4.26.719-.621.1-1.242.2-1.846.311-.985.16-1.952.328-2.911.488-.63.106-1.269.212-1.9.311-3.789.6-7.428,1.153-11.156,1.579-3.1.347-6.256.621-9.585.8-.665.036-1.331.062-2,.089-.7.026-1.42.053-2.129.07s-1.42.027-2.157.045-1.465.018-2.219.018c-4.464,0-9.354-.169-14.9-.559h-.061c-.276-.009-.533-.026-.8-.026a9.993,9.993,0,0,0-9.6,7.109c-12.149,40.928-36.2,25.15-43.515,162.526q6.653-3.6,12.924-7.776a165.059,165.059,0,0,0,73.492-137.364V266.281c.479-.054.968-.1,1.456-.16,4.331-.5,8.36-1.118,11.741-1.66.648-.1,1.3-.212,1.961-.319.586-.1,1.181-.195,1.757-.292l1.172-.2.054-.009.044-.009c.533-.089,1.083-.2,1.642-.266l.08-.018.08-.018,1.384-.231c.95-.16,1.9-.319,2.867-.479l.692-.115c.337-.062.692-.125,1.047-.177v15.815a191.1,191.1,0,0,1-113.873,174.8c-1.118.488-2.245.976-3.372,1.447A189.953,189.953,0,0,1,191,469.151h-.673A189.128,189.128,0,0,1,73.954,429.1ZM191,443.175h.542q-3.922,0-7.855-.138Q187.338,443.187,191,443.175Z" transform="translate(5917.291 -6435.472)" stroke="rgba(0,0,0,0)" stroke-miterlimit="10" stroke-width="1" fill="url(#linear-gradient)"/>
    <path id="Path_7753" data-name="Path 7753" d="M527.483,393.937c-.053.213-.125.444-.2.666-.275.87-.639,1.863-1.065,2.858-.089.213-.2.435-.284.648-.124.275-.24.541-.382.807-.994,2.041-2.165,3.9-3.213,4.518a1.434,1.434,0,0,1-.328.168,1.157,1.157,0,0,1-.391.062h-.08c-1.5-.106-3.16-1.961-3.914-2.955-1.846,8.857-4.438,18.984-9.434,26.687-.044,1.722-.089,3.453-.089,5.165L416.184,557.083l74.451-13.6L399.544,700.66a167.852,167.852,0,0,1-42.351-31.541c4.952-21.921,10.916-42.182-5.591-58.689-15.682-15.682-12.718-22.613-21.175-52.876a14.311,14.311,0,0,0-3.994-6.913c-4.774-.39-10.1-1.109-15.877-2.148-7.881-1.393-16.614-3.381-25.977-5.893q-4.273-1.145-8.733-2.432-7.069-2.063-14.519-4.482c-2.787-.9-5.99-2.085-9.452-3.488A348.338,348.338,0,0,1,210.9,512.177c-5.414-3.222-9.7-6.683-13.339-8.458a.766.766,0,0,0-.222-.151,30.781,30.781,0,0,1-4.171-2.4,5.071,5.071,0,0,1-.683-.532,10.362,10.362,0,0,1-3.949-8c-.222-3.284.55-7.349,1.8-12.612,3.044-12.5,3.133-25.648,4.686-38.5,2.112-17.226,2.538-34.967,7.1-51.491,5.005-18.034,14.164-34.887,21.078-52.406a88.071,88.071,0,0,1,27.672-37.8A99.27,99.27,0,0,1,271.444,287.4c1.536-.675,2.955-1.536,4.4-2.308.142-.071.266-.133.408-.213q3.061-1.651,5.573-3c.568-.3,1.1-.595,1.615-.87.382-.2.763-.408,1.127-.594a67.993,67.993,0,0,1,7.135-3.373c.329-.124.657-.239.985-.355a18.449,18.449,0,0,1,1.828-.488c.293-.053.577-.107.861-.133a9.229,9.229,0,0,1,1.216-.08,8.939,8.939,0,0,1,3.719.817c.319.142.621.284.95.453a40.887,40.887,0,0,1,6.133,4.393c.16.142.32.266.488.417s.346.284.524.426q.519.439,1.092.905c.337.284.692.577,1.047.879,1.748,1.446,3.71,3.106,6,4.952,3.017,2.449,5.8,5.218,8.777,7.721,3.577,3.018,3.887,5.84.639,8.014l-3.718,5.076-11.138,7.331-.559.2-11.431,3.985c-5.165,1.207-9.913,2.6-14.546,3.648a68.665,68.665,0,0,1-8.608,1.482.531.531,0,0,0-.115.018c-5.263.524-8.156,2.689-11.138,6.683-11.289,15.016-3.861,38.845-1.5,56.586.985,7.455,1.189,15.034,2.627,22.391,3.577,18.815,1.252,27.592-4.775,40.319l4.508-1.074a78.681,78.681,0,0,1,10.277-2.662c1.952-.337,3.63-.417,6.922-.773.586-.071,1.189-.115,1.8-.151,1.234-.08,2.485-.106,3.763-.106.692,0,1.393,0,2.112.018s1.429.044,2.157.071c4.375.178,9.07.524,14.253.524.435,0,.879,0,1.34-.009h.479c.621,0,1.251.018,1.864.044a59.482,59.482,0,0,1,9.94,1.349c.754.169,1.5.337,2.228.506,1.456.355,2.875.728,4.242,1.1,5.476,1.509,10.17,3.018,13.579,3.018a7.823,7.823,0,0,0,1.367-.1c.488-.071.985-.142,1.455-.213.958-.133,1.908-.266,2.822-.408s1.81-.266,2.7-.391c1.313-.187,2.583-.364,3.807-.541.816-.115,1.624-.231,2.4-.328a158.212,158.212,0,0,1,20.59-1.819c1.5,0,2.928.044,4.313.151,1.047.071,2.059.169,3.08.3a54.5,54.5,0,0,1,7.038,1.385c.675.187,1.358.382,2.059.595.639.124,1.526.293,2.618.461.266.045.55.1.843.133.142.027.293.053.453.071.3.045.621.089.949.133.825.106,1.713.222,2.654.32.373.044.772.079,1.162.124s.8.071,1.2.1c.417.036.834.062,1.269.089l.879.053,1.047.053c1.118.044,2.281.08,3.461.08a65.154,65.154,0,0,0,9.922-.728c1.118-.169,2.236-.382,3.355-.63.364-.08.737-.177,1.1-.266s.728-.186,1.1-.293c.728-.213,1.455-.435,2.166-.674s1.42-.515,2.121-.8a30.631,30.631,0,0,0,3.035-1.455c.656-.355,1.3-.746,1.926-1.163a22.914,22.914,0,0,0,2.7-2.015,23.288,23.288,0,0,0,4.526-5.209c.08-.107.142-.213.222-.337.248-4.225.248-9.053.142-13.818-5.014-7.7-7.588-17.794-9.416-26.678-.8.985-2.458,2.849-3.923,2.955h-.089a1.155,1.155,0,0,1-.382-.071,2,2,0,0,1-.417-.2c-1.109-.728-2.343-2.733-3.346-4.881-.133-.266-.248-.533-.364-.808a30.4,30.4,0,0,1-1.18-3.1c-.071-.23-.133-.461-.2-.665-.932-3.417-2.2-15.2-.781-19.6.488-1.57,1.243-2.139,2.041-2.139,1.438,0,3.053,1.828,3.763,2.92a5.991,5.991,0,0,0,2.112,1.713c-.3-5.8-.586-11.608-1.438-17.359a68.182,68.182,0,0,1,2.938-33.254c8.147-23.137,39.848-24.743,44.25-24.885h.026c4.393.142,36.121,1.748,44.25,24.885a67.859,67.859,0,0,1,2.929,33.254c-.843,5.751-1.127,11.555-1.438,17.359a5.592,5.592,0,0,0,2.112-1.713c.1-.124.2-.284.32-.444s.24-.319.373-.47.275-.32.426-.488a4.2,4.2,0,0,1,2.636-1.517,1.835,1.835,0,0,1,.3.035,1.593,1.593,0,0,1,.275.08h.009a1.7,1.7,0,0,1,.275.159,3.339,3.339,0,0,1,1.2,1.864C529.684,378.743,528.451,390.529,527.483,393.937Z" transform="translate(5632.708 -6711.446)" fill="#fcddbc"/>
    <g id="Group_1158" data-name="Group 1158" transform="translate(6076.227 -6528.099)">
      <g id="Group_1153" data-name="Group 1153" transform="translate(0 0)">
        <path id="Path_6272" data-name="Path 6272" d="M524.088,210.63l3.807,22.136-19.875-10.453-19.888,10.452,3.807-22.135-16.085-15.661,22.216-3.23L508.02,171.6l9.936,20.137,22.215,3.23Z" transform="translate(-475.853 -171.602)" fill="#de355a"/>
      </g>
    </g>
    <g id="Group_1159" data-name="Group 1159" transform="translate(5987.085 -6484.905)">
      <g id="Group_1155" data-name="Group 1155" transform="translate(0 0)">
        <path id="Path_6273" data-name="Path 6273" d="M423.644,259.3l3.807,22.136-19.875-10.453-19.887,10.451,3.806-22.136L375.41,243.64l22.217-3.23,9.95-20.137,9.94,20.137,22.214,3.23Z" transform="translate(-375.41 -220.273)" fill="#de355a"/>
      </g>
    </g>
    <g id="Group_1160" data-name="Group 1160" transform="translate(6165.187 -6484.905)">
      <g id="Group_1157" data-name="Group 1157" transform="translate(0 0)">
        <path id="Path_6274" data-name="Path 6274" d="M624.331,259.3l3.806,22.136-19.875-10.453-19.889,10.451,3.806-22.136L576.095,243.64l22.217-3.23,9.951-20.137,9.94,20.137,22.215,3.23Z" transform="translate(-576.095 -220.273)" fill="#de355a"/>
      </g>
    </g>
    <g id="Group_1161" data-name="Group 1161" transform="translate(5901.227 -5957.205)">
      <path id="Path_6275" data-name="Path 6275" d="M323.678,823.064,296.37,860.985l14.9,10.732-6.324,8.786L278.67,861.576l33.635-46.7Z" transform="translate(-278.67 -814.874)" fill="#dd2d5b"/>
      <path id="Path_6276" data-name="Path 6276" d="M395.957,874.11l-19.538-8.322L371.857,876.5l17.275,7.357-4.241,9.958-17.275-7.359-4.949,11.618L382.2,906.4l-4.4,10.334-32.436-13.816,22.556-52.954,32.437,13.816Z" transform="translate(-286.174 -818.822)" fill="#dd2d5b"/>
      <path id="Path_6277" data-name="Path 6277" d="M462.86,926.913,441.6,923.825l-4.87,9.565-14.523-2.112,28.886-53.96,16.064,2.335,12.329,59.95L464.8,937.469Zm-6.041-33.1-10.008,19.837,14.036,2.041Z" transform="translate(-294.82 -821.899)" fill="#dd2d5b"/>
      <path id="Path_6278" data-name="Path 6278" d="M573.061,874.85l7.956,57.007L567.131,933.8,539,901.874l4.907,35.163-13.887,1.938-7.955-57.006,13.886-1.938L564.1,912.113l-4.93-35.322Z" transform="translate(-306.055 -821.622)" fill="#dd2d5b"/>
      <path id="Path_6279" data-name="Path 6279" d="M651.455,909.417c-11.36,4.924-22.681,3.131-27.69-7.388l13.691-5.935c2.137,3.9,5.542,4.746,9.154,3.181,3.761-1.631,5.352-4.554,4.016-7.638-4.24-9.781-28.361,6.934-36.331-11.863-4.337-10,1.449-19.125,12.506-23.921,11.509-4.99,21.735-2.633,26.632,7.219l-13.916,6.035c-1.694-3.284-4.98-4.274-8.474-2.85-3.116,1.262-4.763,3.853-3.328,7.163,3.979,9.177,28.288-6.276,35.952,11.4C667.516,893.7,663.793,904.068,651.455,909.417Z" transform="translate(-316.27 -819.2)" fill="#dd2d5b"/>
      <path id="Path_6280" data-name="Path 6280" d="M688.733,821.714l27.93,37.47,14.724-10.978,6.467,8.678L711.891,876.24l-34.4-46.149Z" transform="translate(-323.544 -815.643)" fill="#dd2d5b"/>
    </g>
  </g>
</svg>
